<svg width="32" height="32" viewBox="0 0 32 32" fill="none" xmlns="http://www.w3.org/2000/svg">
<path fill-rule="evenodd" clip-rule="evenodd" d="M25.4697 12.0221C26.2614 11.565 26.2288 10.399 25.4247 9.96416C24.2564 9.33248 22.7852 8.48937 21.7236 7.71703C21.1682 7.31295 20.5737 6.66897 19.987 5.91605C19.7594 5.624 19.3618 5.52941 18.9861 5.44005C18.9062 5.42105 18.8273 5.40229 18.7513 5.38191C18.4646 5.3051 18.2397 5.11291 18.113 4.86869C18.0843 4.85651 18.0594 4.8349 18.0434 4.80538C18.0216 4.76514 18.021 4.71905 18.038 4.68009C17.9891 4.50928 17.9845 4.32342 18.0339 4.13932C18.1298 3.78117 18.2364 3.36586 18.0436 3.04913C17.498 2.15266 17.0255 1.30711 16.6857 0.678044C16.3728 0.0990671 15.6413 -0.118322 15.0714 0.210716L5.85175 5.53369C5.32813 5.836 5.13179 6.49243 5.41787 7.02509C5.7381 7.62131 6.19308 8.44201 6.72453 9.32474C6.86679 9.56103 7.17472 9.62751 7.45053 9.62751C7.75653 9.62751 8.03089 9.76298 8.21691 9.97722L8.21798 9.97663L9.20626 9.44014C9.2756 9.40249 9.36233 9.42819 9.39997 9.49753C9.43761 9.56687 9.41191 9.65359 9.34257 9.69124L8.37243 10.2179C8.43191 10.347 8.46509 10.4906 8.46509 10.6421C8.46509 10.7687 8.4556 10.9012 8.446 11.0351L8.446 11.0351C8.41686 11.442 8.38677 11.862 8.61884 12.1685C9.25866 13.0135 9.9132 13.7428 10.5209 14.1849C12.0741 15.3149 14.504 16.5963 15.5792 17.1455C15.9186 17.3188 16.3203 17.3045 16.6503 17.114L25.4697 12.0221ZM17.3062 5.20556C17.3439 5.2749 17.3182 5.36163 17.2488 5.39927L16.2605 5.93577C16.1912 5.97341 16.1045 5.94771 16.0668 5.87837C16.0292 5.80903 16.0549 5.72231 16.1242 5.68466L17.1125 5.14817C17.1819 5.11053 17.2686 5.13622 17.3062 5.20556ZM15.3297 6.27855C15.3673 6.34789 15.3416 6.43462 15.2723 6.47226L14.284 7.00876C14.2146 7.0464 14.1279 7.0207 14.0903 6.95136C14.0526 6.88202 14.0783 6.7953 14.1477 6.75766L15.136 6.22116C15.2053 6.18352 15.292 6.20922 15.3297 6.27855ZM13.3531 7.35155C13.3907 7.42089 13.365 7.50761 13.2957 7.54525L12.3074 8.08175C12.2381 8.11939 12.1514 8.09369 12.1137 8.02435C12.0761 7.95501 12.1018 7.86829 12.1711 7.83065L13.1594 7.29415C13.2287 7.25651 13.3155 7.28221 13.3531 7.35155ZM11.3765 8.42454C11.4142 8.49388 11.3885 8.5806 11.3191 8.61824L10.3309 9.15474C10.2615 9.19238 10.1748 9.16669 10.1371 9.09735C10.0995 9.02801 10.1252 8.94128 10.1945 8.90364L11.1828 8.36714C11.2522 8.3295 11.3389 8.3552 11.3765 8.42454ZM28.1748 26.5503C28.5284 26.3461 28.7462 25.9688 28.7462 25.5605V15.2641C28.7462 14.3843 27.7938 13.8345 27.0319 14.2743L18.115 19.4226C17.7614 19.6267 17.5435 20.004 17.5435 20.4123V30.7087C17.5435 31.5885 18.4959 32.1384 19.2578 31.6985L28.1748 26.5503ZM14.1313 19.4227C14.4849 19.6268 14.7027 20.0041 14.7027 20.4124V30.7089C14.7027 31.5886 13.7503 32.1385 12.9884 31.6986L4.07143 26.5504C3.71783 26.3462 3.5 25.9689 3.5 25.5606V15.2642C3.5 14.3844 4.45238 13.8346 5.21429 14.2745L14.1313 19.4227Z" fill="#5AB6F8"/>
</svg>
