<svg width="94" height="20" viewBox="0 0 94 20" fill="none" xmlns="http://www.w3.org/2000/svg">
<path fill-rule="evenodd" clip-rule="evenodd" d="M14.4906 6.57486C14.9235 6.32489 14.9057 5.6872 14.4659 5.44942C13.827 5.10397 13.0225 4.6429 12.4419 4.22053C12.1382 3.99958 11.8131 3.64748 11.4924 3.23582C11.3679 3.07605 11.1503 3.02432 10.9447 2.97546C10.9009 2.96504 10.8577 2.95476 10.816 2.94359C10.6934 2.91073 10.5914 2.83928 10.5197 2.74581C10.4571 2.75448 10.3928 2.72437 10.3609 2.66554C10.3228 2.59538 10.344 2.50893 10.4074 2.46378C10.4008 2.39859 10.4057 2.33111 10.4237 2.26405C10.4762 2.068 10.5346 1.84063 10.4291 1.66726C10.1308 1.17719 9.87258 0.714983 9.68678 0.37108C9.51571 0.0544524 9.11565 -0.0644327 8.80398 0.11551L3.76199 3.02651C3.47563 3.19183 3.36826 3.55082 3.52471 3.84212C3.69986 4.16823 3.94873 4.61715 4.23943 5.09998C4.31713 5.22903 4.48526 5.2654 4.6359 5.2654C4.7747 5.2654 4.90159 5.31637 4.99889 5.40061C5.00516 5.39585 5.01186 5.39151 5.01899 5.38764L5.55946 5.09424C5.6353 5.05307 5.73015 5.08118 5.77132 5.15702C5.81249 5.23286 5.78439 5.32771 5.70855 5.36888L5.16808 5.66228L5.16795 5.66235C5.18278 5.71239 5.19074 5.76539 5.19074 5.82025C5.19074 5.88938 5.18557 5.96175 5.18034 6.03491L5.18034 6.03491C5.16444 6.2573 5.14802 6.48688 5.27488 6.65443C5.62489 7.11673 5.98298 7.51577 6.31543 7.75765C7.16482 8.3756 8.49371 9.0764 9.0817 9.37672C9.26728 9.47151 9.48696 9.46369 9.66743 9.35949L14.4906 6.57486ZM10.0951 2.80985C10.1362 2.88569 10.1081 2.98054 10.0323 3.02171L9.49182 3.31511C9.41598 3.35628 9.32112 3.32817 9.27995 3.25233C9.23878 3.17649 9.26688 3.08164 9.34272 3.04047L9.88319 2.74707C9.95903 2.7059 10.0539 2.73401 10.0951 2.80985ZM9.01412 3.39664C9.05529 3.47248 9.02719 3.56734 8.95135 3.60851L8.41088 3.9019C8.33504 3.94307 8.24019 3.91497 8.19902 3.83913C8.15785 3.76329 8.18595 3.66843 8.26179 3.62726L8.80226 3.33386C8.8781 3.29269 8.97295 3.3208 9.01412 3.39664ZM7.93319 3.98343C7.97436 4.05927 7.94626 4.15413 7.87042 4.1953L7.32995 4.48869C7.25411 4.52986 7.15925 4.50176 7.11808 4.42592C7.07691 4.35008 7.10502 4.25522 7.18086 4.21405L7.72133 3.92066C7.79717 3.87949 7.89202 3.90759 7.93319 3.98343ZM6.85226 4.57022C6.89343 4.64606 6.86532 4.74092 6.78948 4.78209L6.24902 5.07549C6.17318 5.11666 6.07832 5.08855 6.03715 5.01271C5.99598 4.93687 6.02408 4.84202 6.09993 4.80084L6.64039 4.50745C6.71623 4.46628 6.81109 4.49438 6.85226 4.57022ZM15.9706 14.5196C16.164 14.408 16.2831 14.2017 16.2831 13.9784V8.34751C16.2831 7.86638 15.7623 7.56568 15.3456 7.80624L10.4691 10.6217C10.2757 10.7333 10.1566 10.9397 10.1566 11.1629V16.7938C10.1566 17.2749 10.6775 17.5756 11.0941 17.3351L15.9706 14.5196ZM8.29053 10.6219C8.48391 10.7335 8.60303 10.9399 8.60303 11.1632V16.794C8.60303 17.2751 8.0822 17.5758 7.66553 17.3353L2.78906 14.5199C2.59569 14.4082 2.47656 14.2019 2.47656 13.9786V8.34772C2.47656 7.86659 2.9974 7.56589 3.41406 7.80645L8.29053 10.6219Z" fill="#777E91"/>
<path d="M28.18 11.2325C28.18 12.47 27.9279 13.4096 27.4238 14.0512C26.9196 14.6837 26.0625 15 24.8525 15C24.1742 15 23.5417 14.9771 22.955 14.9312C22.3775 14.8762 21.8688 14.8121 21.4288 14.7387L21.3875 14.7112V5.6225H23.5875V9.21125H23.6425C23.7708 8.88125 23.9817 8.61542 24.275 8.41375C24.5775 8.21208 25.0038 8.11125 25.5538 8.11125C27.3046 8.11125 28.18 9.15167 28.18 11.2325ZM23.5875 11.4663V13.075C23.8075 13.1117 24.0642 13.13 24.3575 13.13C24.7883 13.13 25.1229 13.0933 25.3613 13.02C25.6088 12.9375 25.7829 12.7817 25.8838 12.5525C25.9846 12.3233 26.035 11.9933 26.035 11.5625C26.035 11.0217 25.9571 10.6229 25.8013 10.3662C25.6454 10.1096 25.3246 9.98125 24.8388 9.98125C24.4721 9.98125 24.1696 10.0958 23.9313 10.325C23.7021 10.545 23.5875 10.9254 23.5875 11.4663ZM31.2751 14.8762H29.0751V5.6225H31.2751V14.8762ZM32.1727 11.5762C32.1727 10.3479 32.4339 9.46333 32.9564 8.9225C33.4789 8.38167 34.3635 8.11125 35.6102 8.11125C36.4443 8.11125 37.1135 8.23042 37.6177 8.46875C38.1218 8.70708 38.4839 9.08292 38.7039 9.59625C38.9331 10.1004 39.0477 10.7604 39.0477 11.5762C39.0477 12.3829 38.9331 13.0383 38.7039 13.5425C38.4839 14.0467 38.1218 14.4179 37.6177 14.6562C37.1135 14.8854 36.4443 15 35.6102 15C34.3635 15 33.4789 14.7342 32.9564 14.2025C32.4339 13.6617 32.1727 12.7862 32.1727 11.5762ZM35.6102 13.1162C36.1418 13.1162 36.4993 13.0017 36.6827 12.7725C36.8752 12.5342 36.9714 12.1217 36.9714 11.535C36.9714 10.9758 36.8752 10.5771 36.6827 10.3387C36.4993 10.0912 36.1418 9.9675 35.6102 9.9675C35.0968 9.9675 34.7393 10.0912 34.5377 10.3387C34.3452 10.5771 34.2489 10.9758 34.2489 11.535C34.2489 12.1217 34.3452 12.5342 34.5377 12.7725C34.7393 13.0017 35.0968 13.1162 35.6102 13.1162ZM45.15 12.9375V14.725C44.9208 14.8167 44.5816 14.8854 44.1325 14.9312C43.6833 14.9771 43.2066 15 42.7025 15C41.9783 15 41.3733 14.8992 40.8875 14.6975C40.4108 14.4958 40.0533 14.1475 39.815 13.6525C39.5858 13.1575 39.4666 12.47 39.4575 11.59C39.4575 10.6825 39.5812 9.97667 39.8287 9.4725C40.0854 8.96833 40.4566 8.61542 40.9425 8.41375C41.4283 8.21208 42.0104 8.11125 42.6887 8.11125C43.0921 8.11125 43.5183 8.13875 43.9675 8.19375C44.4166 8.24875 44.7833 8.32208 45.0675 8.41375L45.0812 10.2562L45.04 10.2837C44.765 10.2287 44.4716 10.1875 44.16 10.16C43.8483 10.1325 43.5412 10.1187 43.2387 10.1187C42.6246 10.1187 42.1983 10.2333 41.96 10.4625C41.7216 10.6917 41.6025 11.0767 41.6025 11.6175C41.6025 12.03 41.6529 12.3371 41.7537 12.5387C41.8546 12.7404 42.0241 12.8733 42.2625 12.9375C42.5008 13.0017 42.8262 13.0337 43.2387 13.0337C43.5596 13.0337 43.8666 13.02 44.16 12.9925C44.4533 12.965 44.765 12.9329 45.095 12.8962L45.15 12.9375ZM48.309 14.8762H46.109V5.6225H48.309V11.0125H48.3365L50.069 8.18H52.489V8.235L50.454 11.3975V11.4525L52.819 14.8762H50.289L48.3503 11.7825L48.309 11.7687V14.8762ZM53.3568 12.8687V9.98125H52.5318V8.19375H53.563L53.9755 6.5575H55.5568V8.19375H57.0555V9.98125H55.5568V12.3875C55.5568 12.6442 55.5889 12.8229 55.653 12.9237C55.7172 13.0154 55.8639 13.0612 56.093 13.0612C56.2397 13.0612 56.3955 13.0567 56.5605 13.0475C56.7255 13.0292 56.8905 13.0108 57.0555 12.9925L57.0968 13.02V14.8075C56.6568 14.9358 56.0747 15 55.3505 15C54.6264 15 54.113 14.835 53.8105 14.505C53.508 14.175 53.3568 13.6296 53.3568 12.8687ZM60.1365 5.69125C60.164 6.02125 60.1778 6.29625 60.1778 6.51625C60.1778 6.64458 60.1732 6.7775 60.164 6.915C60.164 7.04333 60.1548 7.19 60.1365 7.355C59.944 7.39167 59.7561 7.41917 59.5728 7.4375C59.3894 7.45583 59.2061 7.465 59.0228 7.465C58.8486 7.465 58.6698 7.45583 58.4865 7.4375C58.3123 7.41917 58.1336 7.39167 57.9503 7.355C57.9319 7.19917 57.9182 7.05708 57.909 6.92875C57.8998 6.79125 57.8953 6.65833 57.8953 6.53C57.8953 6.41083 57.8998 6.2825 57.909 6.145C57.9182 6.0075 57.9319 5.85625 57.9503 5.69125C58.1336 5.64542 58.3169 5.61792 58.5003 5.60875C58.6928 5.59042 58.8807 5.58125 59.064 5.58125C59.2382 5.58125 59.4123 5.59042 59.5865 5.60875C59.7698 5.61792 59.9532 5.64542 60.1365 5.69125ZM60.1365 14.8762H57.9365V8.18H60.1365V14.8762ZM66.5951 12.9375V14.725C66.366 14.8167 66.0268 14.8854 65.5776 14.9312C65.1285 14.9771 64.6518 15 64.1476 15C63.4235 15 62.8185 14.8992 62.3326 14.6975C61.856 14.4958 61.4985 14.1475 61.2601 13.6525C61.031 13.1575 60.9118 12.47 60.9026 11.59C60.9026 10.6825 61.0264 9.97667 61.2739 9.4725C61.5306 8.96833 61.9018 8.61542 62.3876 8.41375C62.8735 8.21208 63.4556 8.11125 64.1339 8.11125C64.5372 8.11125 64.9635 8.13875 65.4126 8.19375C65.8618 8.24875 66.2285 8.32208 66.5126 8.41375L66.5264 10.2562L66.4851 10.2837C66.2101 10.2287 65.9168 10.1875 65.6051 10.16C65.2935 10.1325 64.9864 10.1187 64.6839 10.1187C64.0697 10.1187 63.6435 10.2333 63.4051 10.4625C63.1668 10.6917 63.0476 11.0767 63.0476 11.6175C63.0476 12.03 63.0981 12.3371 63.1989 12.5387C63.2997 12.7404 63.4693 12.8733 63.7076 12.9375C63.946 13.0017 64.2714 13.0337 64.6839 13.0337C65.0047 13.0337 65.3118 13.02 65.6051 12.9925C65.8985 12.965 66.2101 12.9329 66.5401 12.8962L66.5951 12.9375ZM69.7542 14.8762H67.5542V5.6225H69.7542V11.0125H69.7817L71.5142 8.18H73.9342V8.235L71.8992 11.3975V11.4525L74.2642 14.8762H71.7342L69.7954 11.7825L69.7542 11.7687V14.8762ZM80.5632 14.6562C80.3065 14.7479 79.949 14.8304 79.4907 14.9037C79.0415 14.9679 78.5053 15 77.882 15C77.0936 15 76.4199 14.8992 75.8607 14.6975C75.3107 14.4867 74.8936 14.1337 74.6095 13.6387C74.3253 13.1346 74.1832 12.4379 74.1832 11.5487C74.1832 10.3387 74.4582 9.46333 75.0082 8.9225C75.5674 8.38167 76.429 8.11125 77.5932 8.11125C78.4274 8.11125 79.0828 8.23042 79.5595 8.46875C80.0453 8.70708 80.389 9.04625 80.5907 9.48625C80.8015 9.91708 80.907 10.4304 80.907 11.0262C80.907 11.2004 80.8978 11.3883 80.8795 11.59C80.8703 11.7917 80.8474 11.9887 80.8107 12.1812L80.7557 12.2362H76.232C76.2961 12.6396 76.484 12.9054 76.7957 13.0337C77.1165 13.1621 77.6345 13.2262 78.3495 13.2262C78.8261 13.2262 79.2203 13.2171 79.532 13.1987C79.8528 13.1712 80.1782 13.1346 80.5082 13.0887L80.5632 13.13V14.6562ZM78.9957 10.7925C78.9957 10.5725 78.959 10.3846 78.8857 10.2287C78.8215 10.0637 78.6886 9.94 78.487 9.8575C78.2853 9.76583 77.9874 9.72 77.5932 9.72C77.0157 9.72 76.6353 9.82083 76.452 10.0225C76.2778 10.215 76.1907 10.4717 76.1907 10.7925H78.9957ZM81.9391 12.8687V9.98125H81.1141V8.19375H82.1453L82.5578 6.5575H84.1391V8.19375H85.6378V9.98125H84.1391V12.3875C84.1391 12.6442 84.1711 12.8229 84.2353 12.9237C84.2995 13.0154 84.4461 13.0612 84.6753 13.0612C84.822 13.0612 84.9778 13.0567 85.1428 13.0475C85.3078 13.0292 85.4728 13.0108 85.6378 12.9925L85.6791 13.02V14.8075C85.2391 14.9358 84.657 15 83.9328 15C83.2086 15 82.6953 14.835 82.3928 14.505C82.0903 14.175 81.9391 13.6296 81.9391 12.8687ZM86.34 12.9788C87.055 13.1804 87.8479 13.2812 88.7188 13.2812C89.1404 13.2812 89.4567 13.2675 89.6675 13.24C89.8784 13.2125 90.0204 13.1667 90.0938 13.1025C90.1671 13.0383 90.2038 12.9512 90.2038 12.8412C90.2038 12.6854 90.1442 12.5892 90.025 12.5525C89.915 12.5158 89.6904 12.4654 89.3513 12.4012L88.265 12.195C87.5684 12.0575 87.0642 11.8421 86.7525 11.5487C86.45 11.2462 86.2988 10.7971 86.2988 10.2012C86.2988 9.39458 86.5371 8.84458 87.0138 8.55125C87.4996 8.25792 88.2696 8.11125 89.3238 8.11125C89.9563 8.11125 90.5109 8.14792 90.9875 8.22125C91.4734 8.28542 91.8767 8.36792 92.1975 8.46875L92.17 10.1325L92.1288 10.1737C91.3863 9.93542 90.575 9.81625 89.695 9.81625C89.2642 9.81625 88.9617 9.84833 88.7875 9.9125C88.6225 9.9675 88.54 10.0821 88.54 10.2562C88.54 10.3479 88.5629 10.4212 88.6088 10.4762C88.6638 10.5312 88.7829 10.5862 88.9663 10.6412C89.1496 10.6871 89.4384 10.7467 89.8325 10.82L90.8363 11.0125C91.3954 11.1317 91.8079 11.3287 92.0738 11.6037C92.3396 11.8787 92.4725 12.3142 92.4725 12.91C92.4725 13.4325 92.3763 13.8496 92.1838 14.1612C91.9913 14.4637 91.6659 14.6792 91.2075 14.8075C90.7584 14.9358 90.135 15 89.3375 15C88.7325 15 88.1734 14.9725 87.66 14.9175C87.1559 14.8533 86.7021 14.78 86.2988 14.6975V13.0062L86.34 12.9788Z" fill="#777E91"/>
</svg>
