<svg width="132" height="29" viewBox="0 0 132 29" fill="none" xmlns="http://www.w3.org/2000/svg">
<path fill-rule="evenodd" clip-rule="evenodd" d="M19.7288 9.29506C20.3409 8.94166 20.3158 8.0401 19.694 7.70393C18.7908 7.21554 17.6533 6.56368 16.8325 5.96654C16.403 5.6541 15.9433 5.15616 15.4897 4.57398C15.3138 4.34817 15.0063 4.27503 14.7158 4.20595C14.6541 4.19125 14.5931 4.17674 14.5342 4.16098C14.3127 4.10163 14.1389 3.95316 14.0409 3.76449C14.0186 3.7551 13.9992 3.73834 13.9868 3.7154C13.9698 3.68419 13.9695 3.64841 13.9827 3.61823C13.945 3.4862 13.9414 3.34255 13.9796 3.20026C14.0538 2.92332 14.1362 2.60218 13.9871 2.35727C13.5653 1.66423 13.2001 1.01057 12.9373 0.524254C12.6955 0.0766107 12.1299 -0.0914665 11.6893 0.162934L4.56096 4.27846C4.15612 4.51219 4.00432 5.01972 4.22551 5.43155C4.4731 5.89254 4.82489 6.5271 5.2358 7.20962C5.34576 7.39225 5.58375 7.44366 5.79692 7.44366C6.03349 7.44366 6.2456 7.54838 6.38943 7.714L6.39012 7.71362L7.15422 7.29882C7.20783 7.26972 7.27488 7.28959 7.30399 7.3432C7.33309 7.39681 7.31322 7.46386 7.25961 7.49297L6.50968 7.90007C6.55569 7.99987 6.58135 8.11098 6.58135 8.22809C6.58135 8.32592 6.57402 8.42836 6.5666 8.53189C6.54408 8.84641 6.52083 9.1711 6.70024 9.40804C7.19497 10.0614 7.70108 10.6254 8.17098 10.9673C9.37183 11.8409 11.2506 12.8317 12.0819 13.2563C12.3443 13.3903 12.6548 13.3792 12.91 13.2319L19.7288 9.29506ZM13.4168 4.02481C13.4459 4.07842 13.426 4.14547 13.3724 4.17457L12.6083 4.58937C12.5547 4.61848 12.4877 4.59861 12.4586 4.545C12.4295 4.49139 12.4493 4.42434 12.5029 4.39523L13.267 3.98043C13.3207 3.95133 13.3877 3.9712 13.4168 4.02481ZM11.8886 4.85441C11.9177 4.90802 11.8978 4.97507 11.8442 5.00417L11.0801 5.41897C11.0265 5.44807 10.9595 5.42821 10.9304 5.3746C10.9013 5.32099 10.9211 5.25393 10.9747 5.22483L11.7388 4.81003C11.7924 4.78093 11.8595 4.8008 11.8886 4.85441ZM10.3604 5.684C10.3895 5.73761 10.3696 5.80467 10.316 5.83377L9.55192 6.24857C9.49831 6.27767 9.43126 6.2578 9.40215 6.20419C9.37305 6.15058 9.39292 6.08353 9.44653 6.05443L10.2106 5.63963C10.2642 5.61053 10.3313 5.63039 10.3604 5.684ZM8.83219 6.5136C8.8613 6.56721 8.84143 6.63427 8.78782 6.66337L8.02372 7.07817C7.9701 7.10727 7.90305 7.0874 7.87395 7.03379C7.84485 6.98018 7.86471 6.91313 7.91832 6.88403L8.68243 6.46923C8.73604 6.44012 8.80309 6.45999 8.83219 6.5136ZM21.8203 20.5276C22.0937 20.3698 22.2621 20.0781 22.2621 19.7624V11.8016C22.2621 11.1214 21.5258 10.6962 20.9367 11.0363L14.0424 15.0168C13.769 15.1746 13.6006 15.4663 13.6006 15.782V23.7428C13.6006 24.423 14.337 24.8482 14.926 24.5081L21.8203 20.5276ZM10.9624 15.0168C11.2358 15.1747 11.4042 15.4664 11.4042 15.7821V23.7429C11.4042 24.4231 10.6678 24.8482 10.0788 24.5081L3.18448 20.5277C2.91109 20.3699 2.74268 20.0781 2.74268 19.7625V11.8016C2.74268 11.1214 3.47902 10.6963 4.0681 11.0364L10.9624 15.0168Z" fill="#5AB6F8"/>
<path d="M39.082 15.6736C39.082 17.4232 38.7256 18.7516 38.0128 19.6587C37.3 20.553 36.0883 21.0001 34.3776 21.0001C33.4186 21.0001 32.5244 20.9677 31.695 20.9029C30.8785 20.8251 30.1593 20.7344 29.5372 20.6307L29.4789 20.5918V7.7423H32.5892V12.816H32.667C32.8484 12.3495 33.1465 11.9736 33.5612 11.6885C33.9888 11.4034 34.5915 11.2609 35.369 11.2609C37.8443 11.2609 39.082 12.7318 39.082 15.6736ZM32.5892 16.0041V18.2785C32.9002 18.3304 33.2631 18.3563 33.6778 18.3563C34.2869 18.3563 34.7599 18.3044 35.0969 18.2008C35.4468 18.0841 35.693 17.8638 35.8356 17.5398C35.9782 17.2158 36.0494 16.7493 36.0494 16.1402C36.0494 15.3756 35.9393 14.8118 35.719 14.4489C35.4986 14.0861 35.0451 13.9046 34.3582 13.9046C33.8398 13.9046 33.4121 14.0666 33.0752 14.3906C32.7512 14.7017 32.5892 15.2395 32.5892 16.0041ZM43.4579 20.8251H40.3475V7.7423H43.4579V20.8251ZM44.7268 16.1596C44.7268 14.423 45.0961 13.1724 45.8348 12.4078C46.5735 11.6432 47.8241 11.2609 49.5866 11.2609C50.766 11.2609 51.712 11.4293 52.4248 11.7663C53.1376 12.1032 53.6495 12.6346 53.9605 13.3603C54.2845 14.0731 54.4465 15.0062 54.4465 16.1596C54.4465 17.3001 54.2845 18.2267 53.9605 18.9395C53.6495 19.6523 53.1376 20.1771 52.4248 20.5141C51.712 20.8381 50.766 21.0001 49.5866 21.0001C47.8241 21.0001 46.5735 20.6242 45.8348 19.8726C45.0961 19.1079 44.7268 17.8703 44.7268 16.1596ZM49.5866 18.3368C50.3383 18.3368 50.8437 18.1748 51.1029 17.8509C51.3751 17.5139 51.5111 16.9307 51.5111 16.1013C51.5111 15.3108 51.3751 14.747 51.1029 14.4101C50.8437 14.0601 50.3383 13.8852 49.5866 13.8852C48.8609 13.8852 48.3555 14.0601 48.0704 14.4101C47.7982 14.747 47.6621 15.3108 47.6621 16.1013C47.6621 16.9307 47.7982 17.5139 48.0704 17.8509C48.3555 18.1748 48.8609 18.3368 49.5866 18.3368ZM63.0739 18.0841V20.6113C62.7499 20.7409 62.2704 20.8381 61.6353 20.9029C61.0003 20.9677 60.3264 21.0001 59.6136 21.0001C58.5898 21.0001 57.7345 20.8575 57.0476 20.5724C56.3737 20.2873 55.8683 19.7948 55.5313 19.095C55.2073 18.3952 55.0389 17.4232 55.0259 16.1791C55.0259 14.896 55.2009 13.8982 55.5508 13.1854C55.9136 12.4726 56.4385 11.9736 57.1254 11.6885C57.8122 11.4034 58.6352 11.2609 59.5942 11.2609C60.1644 11.2609 60.767 11.2997 61.4021 11.3775C62.0371 11.4553 62.5555 11.5589 62.9572 11.6885L62.9767 14.2934L62.9184 14.3323C62.5296 14.2545 62.1149 14.1962 61.6742 14.1573C61.2336 14.1185 60.7994 14.099 60.3718 14.099C59.5035 14.099 58.9009 14.261 58.5639 14.585C58.2269 14.909 58.0585 15.4533 58.0585 16.2179C58.0585 16.8011 58.1298 17.2353 58.2723 17.5204C58.4149 17.8055 58.6546 17.9934 58.9916 18.0841C59.3285 18.1748 59.7886 18.2202 60.3718 18.2202C60.8254 18.2202 61.2595 18.2008 61.6742 18.1619C62.0889 18.123 62.5296 18.0777 62.9961 18.0258L63.0739 18.0841ZM67.5401 20.8251H64.4298V7.7423H67.5401V15.3626H67.579L70.0284 11.3581H73.4497V11.4358L70.5727 15.9069V15.9847L73.9163 20.8251H70.3394L67.5984 16.4512L67.5401 16.4318V20.8251ZM74.6765 17.9869V13.9046H73.5102V11.3775H74.9681L75.5513 9.06419H77.7869V11.3775H79.9058V13.9046H77.7869V17.3066C77.7869 17.6694 77.8322 17.9221 77.9229 18.0647C78.0137 18.1943 78.221 18.2591 78.545 18.2591C78.7524 18.2591 78.9727 18.2526 79.2059 18.2396C79.4392 18.2137 79.6725 18.1878 79.9058 18.1619L79.9641 18.2008V20.7279C79.342 20.9093 78.5191 21.0001 77.4953 21.0001C76.4715 21.0001 75.7457 20.7668 75.318 20.3002C74.8904 19.8337 74.6765 19.0626 74.6765 17.9869ZM84.2616 7.8395C84.3005 8.30605 84.3199 8.69484 84.3199 9.00587C84.3199 9.18731 84.3134 9.37522 84.3005 9.56962C84.3005 9.75105 84.2875 9.95841 84.2616 10.1917C83.9894 10.2435 83.7238 10.2824 83.4646 10.3083C83.2054 10.3342 82.9462 10.3472 82.687 10.3472C82.4408 10.3472 82.188 10.3342 81.9288 10.3083C81.6826 10.2824 81.4299 10.2435 81.1707 10.1917C81.1448 9.97137 81.1253 9.77049 81.1124 9.58906C81.0994 9.39466 81.0929 9.20675 81.0929 9.02531C81.0929 8.85683 81.0994 8.6754 81.1124 8.481C81.1253 8.28661 81.1448 8.07277 81.1707 7.8395C81.4299 7.7747 81.6891 7.73582 81.9483 7.72286C82.2204 7.69694 82.4861 7.68398 82.7453 7.68398C82.9915 7.68398 83.2378 7.69694 83.484 7.72286C83.7432 7.73582 84.0024 7.7747 84.2616 7.8395ZM84.2616 20.8251H81.1513V11.3581H84.2616V20.8251ZM93.3927 18.0841V20.6113C93.0687 20.7409 92.5892 20.8381 91.9542 20.9029C91.3192 20.9677 90.6452 21.0001 89.9325 21.0001C88.9087 21.0001 88.0533 20.8575 87.3664 20.5724C86.6925 20.2873 86.1871 19.7948 85.8502 19.095C85.5262 18.3952 85.3577 17.4232 85.3447 16.1791C85.3447 14.896 85.5197 13.8982 85.8696 13.1854C86.2325 12.4726 86.7573 11.9736 87.4442 11.6885C88.1311 11.4034 88.954 11.2609 89.913 11.2609C90.4833 11.2609 91.0859 11.2997 91.7209 11.3775C92.3559 11.4553 92.8743 11.5589 93.2761 11.6885L93.2955 14.2934L93.2372 14.3323C92.8484 14.2545 92.4337 14.1962 91.9931 14.1573C91.5524 14.1185 91.1183 14.099 90.6906 14.099C89.8223 14.099 89.2197 14.261 88.8827 14.585C88.5458 14.909 88.3773 15.4533 88.3773 16.2179C88.3773 16.8011 88.4486 17.2353 88.5911 17.5204C88.7337 17.8055 88.9735 17.9934 89.3104 18.0841C89.6474 18.1748 90.1074 18.2202 90.6906 18.2202C91.1442 18.2202 91.5783 18.2008 91.9931 18.1619C92.4078 18.123 92.8484 18.0777 93.3149 18.0258L93.3927 18.0841ZM97.8589 20.8251H94.7486V7.7423H97.8589V15.3626H97.8978L100.347 11.3581H103.769V11.4358L100.892 15.9069V15.9847L104.235 20.8251H100.658L97.9173 16.4512L97.8589 16.4318V20.8251ZM113.141 20.5141C112.778 20.6437 112.272 20.7603 111.624 20.864C110.989 20.9547 110.231 21.0001 109.35 21.0001C108.235 21.0001 107.283 20.8575 106.492 20.5724C105.715 20.2743 105.125 19.7754 104.723 19.0755C104.321 18.3628 104.121 17.3778 104.121 16.1207C104.121 14.4101 104.509 13.1724 105.287 12.4078C106.078 11.6432 107.296 11.2609 108.942 11.2609C110.121 11.2609 111.048 11.4293 111.721 11.7663C112.408 12.1032 112.894 12.5827 113.179 13.2048C113.477 13.8139 113.627 14.5397 113.627 15.382C113.627 15.6283 113.614 15.8939 113.588 16.1791C113.575 16.4642 113.542 16.7428 113.49 17.015L113.413 17.0927H107.017C107.108 17.6629 107.373 18.0388 107.814 18.2202C108.268 18.4016 109 18.4924 110.011 18.4924C110.685 18.4924 111.242 18.4794 111.683 18.4535C112.136 18.4146 112.596 18.3628 113.063 18.298L113.141 18.3563V20.5141ZM110.924 15.0516C110.924 14.7405 110.873 14.4749 110.769 14.2545C110.678 14.0213 110.49 13.8463 110.205 13.7297C109.92 13.6001 109.499 13.5353 108.942 13.5353C108.125 13.5353 107.587 13.6778 107.328 13.963C107.082 14.2351 106.959 14.598 106.959 15.0516H110.924ZM115.086 17.9869V13.9046H113.919V11.3775H115.377L115.96 9.06419H118.196V11.3775H120.315V13.9046H118.196V17.3066C118.196 17.6694 118.241 17.9221 118.332 18.0647C118.423 18.1943 118.63 18.2591 118.954 18.2591C119.162 18.2591 119.382 18.2526 119.615 18.2396C119.848 18.2137 120.082 18.1878 120.315 18.1619L120.373 18.2008V20.7279C119.751 20.9093 118.928 21.0001 117.904 21.0001C116.881 21.0001 116.155 20.7668 115.727 20.3002C115.3 19.8337 115.086 19.0626 115.086 17.9869ZM121.308 18.1425C122.319 18.4276 123.44 18.5701 124.671 18.5701C125.267 18.5701 125.714 18.5507 126.012 18.5118C126.31 18.4729 126.511 18.4081 126.615 18.3174C126.718 18.2267 126.77 18.1036 126.77 17.9481C126.77 17.7277 126.686 17.5917 126.518 17.5398C126.362 17.488 126.044 17.4167 125.565 17.326L124.029 17.0344C123.044 16.84 122.332 16.5354 121.891 16.1207C121.463 15.6931 121.249 15.058 121.249 14.2157C121.249 13.0752 121.586 12.2976 122.26 11.8829C122.947 11.4682 124.036 11.2609 125.526 11.2609C126.42 11.2609 127.204 11.3127 127.878 11.4164C128.565 11.5071 129.135 11.6237 129.589 11.7663L129.55 14.1185L129.492 14.1768C128.442 13.8398 127.295 13.6714 126.051 13.6714C125.442 13.6714 125.014 13.7167 124.768 13.8074C124.535 13.8852 124.418 14.0472 124.418 14.2934C124.418 14.423 124.45 14.5267 124.515 14.6045C124.593 14.6822 124.761 14.76 125.021 14.8377C125.28 14.9025 125.688 14.9868 126.245 15.0904L127.664 15.3626C128.455 15.5311 129.038 15.8097 129.414 16.1985C129.79 16.5873 129.978 17.2029 129.978 18.0453C129.978 18.784 129.842 19.3736 129.57 19.8142C129.297 20.2419 128.837 20.5465 128.189 20.7279C127.554 20.9093 126.673 21.0001 125.546 21.0001C124.69 21.0001 123.9 20.9612 123.174 20.8834C122.461 20.7927 121.82 20.689 121.249 20.5724V18.1813L121.308 18.1425Z" fill="#23262F"/>
</svg>
