<svg width="64" height="64" viewBox="0 0 64 64" fill="none" xmlns="http://www.w3.org/2000/svg">
<path d="M61.156 18.7327V59.8424C61.156 61.9056 59.4833 63.5775 57.4208 63.5775H15.8602C13.7969 63.5775 12.125 61.9049 12.125 59.8424V50.6157V4.08773C12.125 2.02519 13.7969 0.352539 15.8602 0.352539H42.7765C48.5854 0.447377 61.156 11.6003 61.156 18.7327Z" fill="#E2E2E2"/>
<path d="M12.1759 15.7097H40.4634C42.7241 15.7097 44.5569 17.5425 44.5569 19.8031V32.6877C44.5569 34.9483 42.7241 36.7812 40.4634 36.7812H6.86495C4.60431 36.7812 2.77148 34.9483 2.77148 32.6877V11.6162" fill="#F15642"/>
<path d="M2.77148 11.6143C2.77148 13.875 4.60431 15.7078 6.86495 15.7078H12.1758V7.76465H6.86495C4.60431 7.76465 2.77148 9.59747 2.77148 11.8581" fill="#BE4030"/>
<path d="M42.7734 0.352539H47.4535C49.4388 0.352539 51.3425 1.14145 52.7461 2.54504L58.9611 8.76006C60.3647 10.1637 61.1536 12.0674 61.1536 14.0527V18.7327C61.1536 16.3309 59.2063 14.3843 56.8052 14.3843H51.2793C48.9835 14.3843 47.1226 12.5234 47.1226 10.2276V4.70172C47.1219 2.29987 45.1753 0.352539 42.7734 0.352539Z" fill="#B7B7B7"/>
<path d="M14.8961 19.7979H11.0401C10.4577 19.7979 9.98633 20.2692 9.98633 20.8516V27.2443V31.6216C9.98633 32.204 10.4577 32.6754 11.0401 32.6754C11.6225 32.6754 12.0938 32.204 12.0938 31.6216V28.2981H14.8961C16.4922 28.2981 17.7918 26.9992 17.7918 25.4031V22.6929C17.7911 21.0968 16.4922 19.7979 14.8961 19.7979ZM15.6836 25.4031C15.6836 25.8372 15.3302 26.1906 14.8954 26.1906H12.0931V21.9054H14.8954C15.3302 21.9054 15.6836 22.2587 15.6836 22.6929V25.4031Z" fill="white"/>
<path d="M24.6231 19.7979H20.9561C20.3737 19.7979 19.9023 20.2692 19.9023 20.8516V31.6223C19.9023 32.2047 20.3737 32.6761 20.9561 32.6761H24.6231C26.3239 32.6761 27.7078 31.2922 27.7078 29.5914V22.8825C27.7078 21.1818 26.3246 19.7979 24.6231 19.7979ZM25.6003 29.5914C25.6003 30.1302 25.162 30.5686 24.6231 30.5686H22.0098V21.9054H24.6231C25.162 21.9054 25.6003 22.3437 25.6003 22.8825V29.5914Z" fill="white"/>
<path d="M36.7686 19.7979H31.0713C30.489 19.7979 30.0176 20.2692 30.0176 20.8516V31.6223C30.0176 32.2047 30.489 32.6761 31.0713 32.6761C31.6537 32.6761 32.1251 32.2047 32.1251 31.6223V27.2907H34.803C35.3847 27.2907 35.8568 26.8193 35.8568 26.237C35.8568 25.6546 35.3847 25.1832 34.803 25.1832H32.1244V21.9054H36.7679C37.3496 21.9054 37.8216 21.434 37.8216 20.8516C37.8216 20.2692 37.3503 19.7979 36.7686 19.7979Z" fill="white"/>
<path d="M32.0595 51.086C31.6471 50.6743 30.9804 50.6743 30.5688 51.086L26.882 54.7727V43.7842C26.882 43.2025 26.4107 42.7305 25.8283 42.7305C25.2459 42.7305 24.7745 43.2025 24.7745 43.7842V54.7727L21.0878 51.086C20.6761 50.6743 20.0095 50.6743 19.5978 51.086C19.1861 51.4977 19.1861 52.1643 19.5978 52.576L24.0397 57.0179C24.4788 57.457 25.0401 57.6888 25.6154 57.7373C25.6843 57.7513 25.7559 57.759 25.829 57.759C25.902 57.759 25.9737 57.7513 26.0425 57.7373C26.6172 57.6888 27.1792 57.457 27.6183 57.0179L32.0602 52.576C32.4704 52.1643 32.4704 51.4977 32.0595 51.086Z" fill="#B7B7B7"/>
</svg>
